<mxGraphModel dx="1478" dy="1314" grid="1" gridSize="10" guides="1" tooltips="1" connect="1" arrows="1" fold="1" page="0" pageScale="1" pageWidth="827" pageHeight="1169" math="0" shadow="0"><root><mxCell id="0"/><mxCell id="1" parent="0"/><mxCell id="194" value="" style="whiteSpace=wrap;html=1;strokeColor=none;" parent="1" vertex="1"><mxGeometry x="-640" y="-220" width="620" height="1090" as="geometry"/></mxCell><mxCell id="195" style="edgeStyle=none;html=1;exitX=1;exitY=0.5;exitDx=0;exitDy=0;entryX=0;entryY=0.5;entryDx=0;entryDy=0;shape=flexArrow;fillColor=#e1d5e7;strokeColor=#9673a6;" parent="1" source="196" target="198" edge="1"><mxGeometry relative="1" as="geometry"/></mxCell><mxCell id="196" value="Class Files" style="shape=document;whiteSpace=wrap;html=1;boundedLbl=1;" parent="1" vertex="1"><mxGeometry x="-480" y="-200" width="100" height="60" as="geometry"/></mxCell><mxCell id="197" style="edgeStyle=none;html=1;exitX=0.25;exitY=1;exitDx=0;exitDy=0;entryX=0.667;entryY=0.005;entryDx=0;entryDy=0;entryPerimeter=0;fontColor=#FF491C;shape=flexArrow;fillColor=#e1d5e7;strokeColor=#9673a6;" parent="1" source="198" target="200" edge="1"><mxGeometry relative="1" as="geometry"/></mxCell><mxCell id="198" value="类加载器子系统" style="whiteSpace=wrap;html=1;fillColor=#fff2cc;strokeColor=#d6b656;" parent="1" vertex="1"><mxGeometry x="-300" y="-200" width="120" height="60" as="geometry"/></mxCell><mxCell id="199" style="edgeStyle=none;html=1;exitX=0.792;exitY=0;exitDx=0;exitDy=0;entryX=0.75;entryY=1;entryDx=0;entryDy=0;fontColor=#FF491C;exitPerimeter=0;shape=flexArrow;fillColor=#e1d5e7;strokeColor=#9673a6;" parent="1" source="200" target="198" edge="1"><mxGeometry relative="1" as="geometry"/></mxCell><mxCell id="200" value="" style="rounded=0;whiteSpace=wrap;html=1;fillColor=#f8cecc;strokeColor=#b85450;" parent="1" vertex="1"><mxGeometry x="-590" y="-90" width="480" height="190" as="geometry"/></mxCell><mxCell id="201" value="运行时数据区" style="text;html=1;align=center;verticalAlign=middle;resizable=0;points=[];autosize=1;strokeColor=none;fontColor=#FF491C;" parent="1" vertex="1"><mxGeometry x="-440" y="-80" width="90" height="20" as="geometry"/></mxCell><mxCell id="202" value="方法区&lt;br&gt;Method Area" style="rounded=0;whiteSpace=wrap;html=1;fontColor=#ffffff;fillColor=#a20025;strokeColor=#6F0000;" parent="1" vertex="1"><mxGeometry x="-570" y="-50" width="110" height="50" as="geometry"/></mxCell><mxCell id="203" value="堆&lt;br&gt;heap" style="rounded=0;whiteSpace=wrap;html=1;fontColor=#ffffff;fillColor=#a20025;strokeColor=#6F0000;" parent="1" vertex="1"><mxGeometry x="-570" y="30" width="110" height="50" as="geometry"/></mxCell><mxCell id="204" value="&lt;font color=&quot;#000000&quot;&gt;程序计数器&lt;br&gt;Program Counter Register&lt;br&gt;&lt;/font&gt;" style="whiteSpace=wrap;html=1;fontColor=#333333;fillColor=#f5f5f5;strokeColor=#666666;" parent="1" vertex="1"><mxGeometry x="-440" y="-50" width="150" height="50" as="geometry"/></mxCell><mxCell id="205" value="&lt;font color=&quot;#000000&quot;&gt;本地方法栈&lt;br&gt;Native Method Stack&lt;br&gt;&lt;/font&gt;" style="whiteSpace=wrap;html=1;fontColor=#333333;fillColor=#f5f5f5;strokeColor=#666666;" parent="1" vertex="1"><mxGeometry x="-270" y="-50" width="150" height="50" as="geometry"/></mxCell><mxCell id="206" value="&lt;font color=&quot;#000000&quot;&gt;虚拟机栈&lt;br&gt;Java Virtual Machine Stack&lt;br&gt;&lt;/font&gt;" style="whiteSpace=wrap;html=1;fontColor=#333333;fillColor=#f5f5f5;strokeColor=#666666;" parent="1" vertex="1"><mxGeometry x="-440" y="30" width="320" height="50" as="geometry"/></mxCell><mxCell id="217" value="老年代(Tenure/Old Generation)" style="rounded=0;whiteSpace=wrap;html=1;fillColor=#dae8fc;strokeColor=#6c8ebf;" parent="1" vertex="1"><mxGeometry x="-460" y="150" width="80" height="150" as="geometry"/></mxCell><mxCell id="218" value="永久代(Permanent generation)" style="rounded=0;whiteSpace=wrap;html=1;dashed=1;fillColor=#f5f5f5;strokeColor=#666666;fontColor=#333333;" parent="1" vertex="1"><mxGeometry x="-380" y="150" width="80" height="150" as="geometry"/></mxCell><mxCell id="220" value="伊甸园(Eden)" style="rounded=0;whiteSpace=wrap;html=1;fillColor=#ffe6cc;strokeColor=#d79b00;" parent="1" vertex="1"><mxGeometry x="-540" y="150" width="80" height="75" as="geometry"/></mxCell><mxCell id="221" value="S1 &lt;br&gt;(to)" style="rounded=0;whiteSpace=wrap;html=1;fillColor=#f8cecc;strokeColor=#b85450;" parent="1" vertex="1"><mxGeometry x="-500" y="225" width="40" height="75" as="geometry"/></mxCell><mxCell id="224" style="edgeStyle=none;html=1;exitX=0;exitY=1;exitDx=0;exitDy=0;entryX=1;entryY=1;entryDx=0;entryDy=0;endArrow=none;endFill=0;" parent="1" source="222" target="221" edge="1"><mxGeometry relative="1" as="geometry"><Array as="points"><mxPoint x="-500" y="310"/></Array></mxGeometry></mxCell><mxCell id="222" value="So (from)" style="rounded=0;whiteSpace=wrap;html=1;fillColor=#f8cecc;strokeColor=#b85450;" parent="1" vertex="1"><mxGeometry x="-540" y="225" width="40" height="75" as="geometry"/></mxCell><mxCell id="225" value="年轻代 (&lt;br&gt;Young/New &lt;br&gt;generation)" style="text;html=1;align=center;verticalAlign=middle;resizable=0;points=[];autosize=1;strokeColor=none;" parent="1" vertex="1"><mxGeometry x="-540" y="310" width="80" height="50" as="geometry"/></mxCell><mxCell id="226" style="edgeStyle=none;html=1;exitX=1;exitY=0;exitDx=0;exitDy=0;entryX=1;entryY=1;entryDx=0;entryDy=0;endArrow=none;endFill=0;" parent="1" source="218" target="218" edge="1"><mxGeometry relative="1" as="geometry"><Array as="points"><mxPoint x="-270" y="225"/></Array></mxGeometry></mxCell><mxCell id="227" value="方法区" style="text;html=1;align=center;verticalAlign=middle;resizable=0;points=[];autosize=1;strokeColor=none;" parent="1" vertex="1"><mxGeometry x="-276" y="215" width="50" height="20" as="geometry"/></mxCell><mxCell id="228" value="" style="shape=flexArrow;endArrow=classic;html=1;" parent="1" edge="1"><mxGeometry width="50" height="50" relative="1" as="geometry"><mxPoint x="-514" y="90" as="sourcePoint"/><mxPoint x="-514" y="140" as="targetPoint"/></mxGeometry></mxCell><mxCell id="238" style="edgeStyle=none;html=1;exitX=0.5;exitY=1;exitDx=0;exitDy=0;entryX=0.5;entryY=0;entryDx=0;entryDy=0;" parent="1" source="229" target="233" edge="1"><mxGeometry relative="1" as="geometry"/></mxCell><mxCell id="229" value="Thread1" style="rounded=0;whiteSpace=wrap;html=1;" parent="1" vertex="1"><mxGeometry x="-575" y="470" width="80" height="40" as="geometry"/></mxCell><mxCell id="239" style="edgeStyle=none;html=1;exitX=0.5;exitY=1;exitDx=0;exitDy=0;entryX=0.5;entryY=0;entryDx=0;entryDy=0;rounded=0;" parent="1" source="230" target="234" edge="1"><mxGeometry relative="1" as="geometry"><Array as="points"><mxPoint x="-450" y="520"/><mxPoint x="-485" y="520"/></Array></mxGeometry></mxCell><mxCell id="230" value="Thread2" style="rounded=0;whiteSpace=wrap;html=1;" parent="1" vertex="1"><mxGeometry x="-490" y="470" width="80" height="40" as="geometry"/></mxCell><mxCell id="240" style="edgeStyle=none;html=1;exitX=0.5;exitY=1;exitDx=0;exitDy=0;entryX=0.5;entryY=0;entryDx=0;entryDy=0;rounded=0;" parent="1" source="231" target="235" edge="1"><mxGeometry relative="1" as="geometry"><Array as="points"><mxPoint x="-365" y="520"/><mxPoint x="-435" y="520"/></Array></mxGeometry></mxCell><mxCell id="231" value="Thread3" style="rounded=0;whiteSpace=wrap;html=1;" parent="1" vertex="1"><mxGeometry x="-405" y="470" width="80" height="40" as="geometry"/></mxCell><mxCell id="241" style="edgeStyle=none;html=1;exitX=0.5;exitY=1;exitDx=0;exitDy=0;entryX=0.5;entryY=0;entryDx=0;entryDy=0;rounded=0;" parent="1" source="232" target="236" edge="1"><mxGeometry relative="1" as="geometry"><Array as="points"><mxPoint x="-280" y="530"/><mxPoint x="-385" y="530"/></Array></mxGeometry></mxCell><mxCell id="232" value="Thread4" style="rounded=0;whiteSpace=wrap;html=1;" parent="1" vertex="1"><mxGeometry x="-320" y="470" width="80" height="40" as="geometry"/></mxCell><mxCell id="233" value="TLAB1" style="rounded=0;whiteSpace=wrap;html=1;fillColor=#d5e8d4;strokeColor=#82b366;" parent="1" vertex="1"><mxGeometry x="-560" y="540" width="50" height="40" as="geometry"/></mxCell><mxCell id="245" style="edgeStyle=none;html=1;exitX=1;exitY=1;exitDx=0;exitDy=0;entryX=0;entryY=0.5;entryDx=0;entryDy=0;rounded=0;" parent="1" source="234" target="243" edge="1"><mxGeometry relative="1" as="geometry"><Array as="points"><mxPoint x="-460" y="650"/></Array></mxGeometry></mxCell><mxCell id="234" value="TLAB2" style="rounded=0;whiteSpace=wrap;html=1;fillColor=#d5e8d4;strokeColor=#82b366;" parent="1" vertex="1"><mxGeometry x="-510" y="540" width="50" height="40" as="geometry"/></mxCell><mxCell id="235" value="TLAB3" style="rounded=0;whiteSpace=wrap;html=1;fillColor=#d5e8d4;strokeColor=#82b366;" parent="1" vertex="1"><mxGeometry x="-460" y="540" width="50" height="40" as="geometry"/></mxCell><mxCell id="236" value="TLAB4" style="rounded=0;whiteSpace=wrap;html=1;fillColor=#d5e8d4;strokeColor=#82b366;" parent="1" vertex="1"><mxGeometry x="-410" y="540" width="50" height="40" as="geometry"/></mxCell><mxCell id="237" value="" style="rounded=0;whiteSpace=wrap;html=1;fillColor=#dae8fc;strokeColor=#6c8ebf;" parent="1" vertex="1"><mxGeometry x="-360" y="540" width="190" height="40" as="geometry"/></mxCell><mxCell id="242" value="Eden区" style="text;html=1;align=center;verticalAlign=middle;resizable=0;points=[];autosize=1;strokeColor=none;" parent="1" vertex="1"><mxGeometry x="-620" y="550" width="60" height="20" as="geometry"/></mxCell><mxCell id="243" value="TLAB" style="rounded=0;whiteSpace=wrap;html=1;fillColor=#d5e8d4;strokeColor=#82b366;" parent="1" vertex="1"><mxGeometry x="-370" y="630" width="50" height="40" as="geometry"/></mxCell><mxCell id="244" value="" style="rounded=0;whiteSpace=wrap;html=1;fillColor=#dae8fc;strokeColor=#6c8ebf;" parent="1" vertex="1"><mxGeometry x="-320" y="630" width="50" height="40" as="geometry"/></mxCell><mxCell id="246" value="start" style="text;html=1;align=center;verticalAlign=middle;resizable=0;points=[];autosize=1;strokeColor=none;" parent="1" vertex="1"><mxGeometry x="-390" y="670" width="40" height="20" as="geometry"/></mxCell><mxCell id="247" value="top" style="text;html=1;align=center;verticalAlign=middle;resizable=0;points=[];autosize=1;strokeColor=none;" parent="1" vertex="1"><mxGeometry x="-335" y="670" width="30" height="20" as="geometry"/></mxCell><mxCell id="248" value="end" style="text;html=1;align=center;verticalAlign=middle;resizable=0;points=[];autosize=1;strokeColor=none;" parent="1" vertex="1"><mxGeometry x="-290" y="670" width="40" height="20" as="geometry"/></mxCell></root></mxGraphModel>